<svg height="431.331" viewBox="0 0 788.109 431.331" width="788.109" xmlns="http://www.w3.org/2000/svg" xmlns:xlink="http://www.w3.org/1999/xlink"><linearGradient id="a" gradientUnits="objectBoundingBox" x1=".485" x2=".538" y1="3.179" y2="-6.117"><stop offset="0" stop-color="#8bc237"/><stop offset=".959" stop-color="#018240"/><stop offset="1" stop-color="#018240"/></linearGradient><linearGradient id="b" x1=".5" x2=".5" xlink:href="#a" y1="1.477" y2="-.028"/><linearGradient id="c" x1=".5" x2=".5" xlink:href="#a" y1="1.481" y2="-.028"/><g transform="translate(-37.149 -182.537)"><g fill="#004f7d"><path d="m324.661 499.3h-21.352a1.209 1.209 0 0 0 -.991.533l-29.959 42.73-29.939-42.73a1.206 1.206 0 0 0 -1.005-.533h-21.482a1.286 1.286 0 0 0 -1.224 1.3v102.7a1.279 1.279 0 0 0 1.224 1.313h18.658a1.266 1.266 0 0 0 1.245-1.313v-70.737l29.264 41.589a2.305 2.305 0 0 0 1 .519h4.055a1.824 1.824 0 0 0 .615-.505l29.993-41.521v70.655a1.27 1.27 0 0 0 1.245 1.313h18.651a1.276 1.276 0 0 0 1.231-1.313v-102.693a1.283 1.283 0 0 0 -1.229-1.307z"/><path d="m404.57 500.08a1.18 1.18 0 0 0 -1.12-.778h-20.334a1.238 1.238 0 0 0 -1.134.778l-44.372 102.671a1.416 1.416 0 0 0 .1 1.264 1.254 1.254 0 0 0 1.025.595h20.223a1.221 1.221 0 0 0 1.108-.765l8.163-18.6h50.114l8.014 18.59a1.265 1.265 0 0 0 1.121.772h20.4a1.287 1.287 0 0 0 1.245-1.313 1.4 1.4 0 0 0 -.3-.84zm5.2 64.514h-32.94l16.464-39.2z"/><path d="m521.782 567.711c15.246-4.061 23.9-15.992 23.9-33.056 0-16.921-11.513-35.189-36.837-35.353-7.848 0-15.67-.021-23.519-.069s-15.684-.076-23.546-.076a1.284 1.284 0 0 0 -1.231 1.307v102.836a1.275 1.275 0 0 0 1.231 1.313h18.664a1.287 1.287 0 0 0 1.245-1.313v-33.025h16.135l28.454 33.883a1.247 1.247 0 0 0 .944.452h22.165a1.278 1.278 0 0 0 1.245-1.313v-1.312a1.3 1.3 0 0 0 -.315-.882zm2.79-32.619c0 6.967-4.13 15.124-15.725 15.124h-27.156v-30.253h27.156c11.595 0 15.725 8.149 15.725 15.129z"/><path d="m599.75 550.318 42.608-48.22a1.319 1.319 0 0 0 .328-.9v-.6a1.263 1.263 0 0 0 -1.217-1.3h-22.876a1.159 1.159 0 0 0 -.9.437l-35.017 40.933v-40.061a1.282 1.282 0 0 0 -1.217-1.3h-18.45a1.26 1.26 0 0 0 -1.2 1.3v102.693a1.254 1.254 0 0 0 1.2 1.313h18.446a1.275 1.275 0 0 0 1.217-1.313v-42.234l38.806 43.141a1.177 1.177 0 0 0 .875.4h22.794a1.25 1.25 0 0 0 1.176-1.313v-1.169a1.287 1.287 0 0 0 -.341-.909z"/><path d="m730.238 541.711h-53.395v-21.024h53.3a1.261 1.261 0 0 0 1.231-1.3v-18.78a1.274 1.274 0 0 0 -1.231-1.3h-72.663a1.259 1.259 0 0 0 -1.189 1.3v102.693a1.252 1.252 0 0 0 1.189 1.313h72.663a1.267 1.267 0 0 0 1.231-1.313v-19.064a1.271 1.271 0 0 0 -1.231-1.313h-53.3v-20.558h53.395a1.284 1.284 0 0 0 1.231-1.313v-18.042a1.276 1.276 0 0 0 -1.231-1.299z"/><path d="m824.054 499.3h-79.759a1.282 1.282 0 0 0 -1.217 1.3v17.6a1.263 1.263 0 0 0 1.217 1.3h29.522v83.8a1.267 1.267 0 0 0 1.231 1.313h18.268a1.254 1.254 0 0 0 1.2-1.313v-83.789h29.534a1.261 1.261 0 0 0 1.2-1.3v-17.6a1.279 1.279 0 0 0 -1.196-1.311z"/><rect height="45.771" rx="22.886" width="224.618" x="46.232" y="329.629"/></g><path d="m234.652 333.735-61.728 41.665h70.633z" fill="#0d222c"/><rect fill="url(#a)" height="45.771" rx="22.886" transform="matrix(.61445045 -.78895541 .78895541 .61445045 37.149 585.744)" width="336.358"/><path d="m672.139 276.226q0 34.924 0 69.848c0 3.7.032 3.662 3.8 3.743 5.964.127 11.948-.456 17.892.343 12.465 1.676 20.838 12.276 19.961 25.187-.753 11.071-11.316 20.659-22.9 20.747-5.193.04-10.39.121-15.578-.043-2.559-.081-3.243.886-3.223 3.315q.144 17.137.026 34.275c-.067 11.556-7.517 20.917-18.427 23.332a23.462 23.462 0 0 1 -28.354-22.656c-.033-11.6 0-23.2-.01-34.794 0-3.419-.016-3.432-3.486-3.433q-60.5-.018-121-.04c-13.006-.012-23.914-11.1-23.425-23.769.28-7.256 4.058-12.807 8.721-18.048q31.653-35.577 63.136-71.3 25.206-28.464 50.454-56.889c9.981-11.268 20.034-22.476 29.85-33.887 6.707-7.8 14.846-11.187 24.943-8.927 10.627 2.379 17.58 11.841 17.6 23.673q.072 34.659.02 69.323zm-46.8-8.283a1.892 1.892 0 0 0 -1.639.874q-11.93 13.515-23.845 27.042-22.46 25.494-44.9 51c-.642.731-1.993 1.346-1.476 2.471.431.937 1.728.466 2.634.466q32.826.03 65.652.007c3.56 0 3.572-.018 3.573-3.651q0-37.757 0-75.513c-.004-.851-.003-1.706-.003-2.696z" fill="url(#b)"/><path d="m359.034 410.916h3.066q45.825-.009 91.651-.012c12.136.005 21.561 8.057 23.484 19.98 1.866 11.561-6.64 23.485-18.18 25.426a31.026 31.026 0 0 1 -5.11.49q-77.877.023-155.756-.021c-15.568-.01-26.787-15.013-22.249-29.571 1.66-5.326 5.318-9.1 9.32-12.681q17.252-15.449 34.444-30.962c14.982-13.482 30.051-26.87 44.915-40.481 13.789-12.627 28.246-24.535 41.272-37.983 5.887-6.077 11.221-12.725 13.892-20.839 6.543-19.87-.515-42.99-24.333-52.391a50 50 0 0 0 -34.292-1.282c-14.4 4.569-22.71 14.85-26.2 29.213-2.848 11.708-12.293 19.555-23.723 19.33-14.144-.277-24.942-13.2-21.994-26.948 5.785-26.976 20.55-47.425 45.315-60.109a87.362 87.362 0 0 1 35.83-9.387c25.875-1.3 49.083 5.7 68.878 22.6 15.684 13.393 24.82 30.592 28.068 50.967 4.476 28.078-3.841 52.283-21.81 73.755-9.577 11.444-20.816 21.13-31.824 31.073-10.757 9.716-21.6 19.334-32.4 29q-10.352 9.269-20.688 18.556c-.629.562-1.334 1.038-2 1.554z" fill="url(#c)"/></g></svg>