<svg width="168" height="224" viewBox="0 0 168 224" fill="none" xmlns="http://www.w3.org/2000/svg">
<g clip-path="url(#clip0_305_4)">
<path d="M140 210H28C20.2562 210 14 203.744 14 196V28C14 20.2562 20.2562 14 28 14H84V63C84 74.5938 93.4062 84 105 84H154V196C154 203.744 147.744 210 140 210ZM105 70C101.15 70 98 66.85 98 63V14.2188C99.225 14.525 100.362 15.1375 101.237 16.0563L151.944 66.7625C152.862 67.6813 153.475 68.775 153.781 70H105ZM28 0C12.5563 0 0 12.5563 0 28V196C0 211.444 12.5563 224 28 224H140C155.444 224 168 211.444 168 196V71.7062C168 66.15 165.769 60.8125 161.831 56.875L111.169 6.16875C107.231 2.23125 101.894 0 96.3375 0H28ZM91 105C91 101.15 87.85 98 84 98C80.15 98 77 101.15 77 105V158.112L53.9438 135.056C51.2313 132.344 46.7687 132.344 44.0562 135.056C41.3437 137.769 41.3437 142.231 44.0562 144.944L79.0562 179.944C81.7687 182.656 86.2313 182.656 88.9438 179.944L123.944 144.944C126.656 142.231 126.656 137.769 123.944 135.056C121.231 132.344 116.769 132.344 114.056 135.056L91 158.112V105Z" fill="#01689F"/>
</g>
<defs>
<clipPath id="clip0_305_4">
<rect width="168" height="224" fill="white"/>
</clipPath>
</defs>
</svg>
