<svg width="168" height="150" viewBox="0 0 168 150" fill="none" xmlns="http://www.w3.org/2000/svg">
<g clip-path="url(#clip0_301_2)">
<path d="M0 18.6667C0 8.37083 8.37083 0 18.6667 0H65.3333V37.3333C65.3333 42.4958 69.5042 46.6667 74.6667 46.6667H112V60.375L84.9333 71.1958C78.7208 73.675 74.6667 79.6833 74.6667 86.3625C74.6667 102.871 80.1792 129.529 102.142 147.117C99.5167 148.517 96.5125 149.333 93.3333 149.333H18.6667C8.37083 149.333 0 140.962 0 130.667V18.6667ZM112 37.3333H74.6667V0L112 37.3333ZM123.404 65.8292C125.067 65.1583 126.933 65.1583 128.596 65.8292L163.596 79.8292C166.25 80.9083 168 83.475 168 86.3333C168 104.796 160.446 135.567 128.683 148.808C126.962 149.537 125.008 149.537 123.287 148.808C91.5542 135.567 84 104.796 84 86.3333C84 83.475 85.75 80.9083 88.4042 79.8292L123.404 65.8292ZM153.825 91L126 79.8583V134.662C145.892 125.037 152.688 105.787 153.825 91Z" fill="#01689F"/>
</g>
<defs>
<clipPath id="clip0_301_2">
<rect width="168" height="149.333" fill="white"/>
</clipPath>
</defs>
</svg>
