<svg width="125" height="100" viewBox="0 0 125 100" fill="none" xmlns="http://www.w3.org/2000/svg">
<g clip-path="url(#clip0_313_4)">
<path d="M0 21.875C0 13.2422 6.99219 6.25 15.625 6.25C36.4648 6.25 57.2852 6.25 78.125 6.25C86.7578 6.25 93.75 13.2422 93.75 21.875C93.75 27.1289 93.75 32.3828 93.75 37.6367C90.4688 37.9297 87.3242 38.6914 84.375 39.8438C84.375 33.8477 84.375 27.8711 84.375 21.875C84.375 18.418 81.582 15.625 78.125 15.625C62.0703 15.625 45.9961 15.625 29.9414 15.625C30.7813 17.5391 31.25 19.6484 31.25 21.875C31.25 40.625 31.25 59.375 31.25 78.125C31.25 81.582 34.043 84.375 37.5 84.375C40.957 84.375 43.75 81.582 43.75 78.125C43.75 75 43.75 71.875 43.75 68.75C43.75 63.5742 47.9492 59.375 53.125 59.375C53.1445 59.375 53.1836 59.375 53.2031 59.375C53.2422 59.375 53.2812 59.375 53.3203 59.375C53.3594 59.375 53.3984 59.375 53.4375 59.375C53.4766 59.375 53.5156 59.375 53.5547 59.375C53.5938 59.375 53.6328 59.375 53.6719 59.375C53.7109 59.375 53.75 59.375 53.7891 59.375C53.8281 59.375 53.8672 59.375 53.9062 59.375C53.9258 59.375 53.9258 59.375 53.9453 59.375C53.9844 59.375 54.0234 59.375 54.0625 59.375C54.1016 59.375 54.1406 59.375 54.1797 59.375C54.2187 59.375 54.2578 59.375 54.2969 59.375C54.3359 59.375 54.375 59.375 54.4141 59.375C54.4531 59.375 54.4922 59.375 54.5313 59.375C54.5703 59.375 54.6094 59.375 54.6484 59.375C54.6875 59.375 54.7266 59.375 54.7656 59.375C54.8047 59.375 54.8437 59.375 54.8828 59.375C54.9219 59.375 54.9805 59.375 55.0195 59.375C55.0586 59.375 55.0977 59.375 55.1367 59.375C55.1758 59.375 55.2148 59.375 55.2539 59.375C55.293 59.375 55.332 59.375 55.3711 59.375C55.4102 59.375 55.4297 59.375 55.4688 59.375C55.5078 59.375 55.5273 59.375 55.5664 59.375C55.6055 59.375 55.625 59.375 55.6641 59.375C55.7031 59.375 55.7227 59.375 55.7617 59.375C55.8008 59.375 55.8203 59.375 55.8594 59.375C55.8984 59.375 55.918 59.375 55.957 59.375C55.9961 59.375 56.0156 59.375 56.0547 59.375C56.1133 59.375 56.1914 59.375 56.25 59.375C56.2891 59.375 56.3086 59.375 56.3477 59.375C56.3867 59.375 56.4062 59.375 56.4453 59.375C56.4844 59.375 56.5039 59.375 56.543 59.375C56.582 59.375 56.6016 59.375 56.6406 59.375C56.6797 59.375 56.6992 59.375 56.7383 59.375C56.7773 59.375 56.7969 59.375 56.8359 59.375C56.875 59.375 56.8945 59.375 56.9336 59.375C56.9727 59.375 56.9922 59.375 57.0312 59.375C57.0703 59.375 57.0898 59.375 57.1289 59.375C57.168 59.375 57.1875 59.375 57.2266 59.375C57.2656 59.375 57.2852 59.375 57.3242 59.375C57.3633 59.375 57.3828 59.375 57.4219 59.375C57.4805 59.375 57.5586 59.375 57.6172 59.375C57.6563 59.375 57.6758 59.375 57.7148 59.375C57.7539 59.375 57.7734 59.375 57.8125 59.375C57.8516 59.375 57.8711 59.375 57.9102 59.375C57.9492 59.375 57.9687 59.375 58.0078 59.375C58.0469 59.375 58.0664 59.375 58.1055 59.375C58.1445 59.375 58.1641 59.375 58.2031 59.375C58.2422 59.375 58.2617 59.375 58.3008 59.375C58.3398 59.375 58.3594 59.375 58.3984 59.375C58.4375 59.375 58.457 59.375 58.4961 59.375C58.5352 59.375 58.5547 59.375 58.5938 59.375C58.6328 59.375 58.6523 59.375 58.6914 59.375C58.7305 59.375 58.75 59.375 58.7891 59.375C58.8281 59.375 58.8477 59.375 58.8867 59.375C58.9258 59.375 58.9453 59.375 58.9844 59.375C59.043 59.375 59.1211 59.375 59.1797 59.375C59.2188 59.375 59.2383 59.375 59.2773 59.375C59.3164 59.375 59.3359 59.375 59.375 59.375C59.4141 59.375 59.4336 59.375 59.4727 59.375C59.5117 59.375 59.5312 59.375 59.5703 59.375C59.6094 59.375 59.6289 59.375 59.668 59.375C59.707 59.375 59.7266 59.375 59.7656 59.375C59.8047 59.375 59.8242 59.375 59.8633 59.375C59.9023 59.375 59.9219 59.375 59.9609 59.375C60 59.375 60.0195 59.375 60.0586 59.375C60.0977 59.375 60.1172 59.375 60.1562 59.375C60.1953 59.375 60.2148 59.375 60.2539 59.375C60.293 59.375 60.3125 59.375 60.3516 59.375C60.3906 59.375 60.4102 59.375 60.4492 59.375C60.4883 59.375 60.5078 59.375 60.5469 59.375C60.5859 59.375 60.6055 59.375 60.6445 59.375C60.6836 59.375 60.7031 59.375 60.7422 59.375C60.7813 59.375 60.8008 59.375 60.8398 59.375C60.8789 59.375 60.8984 59.375 60.9375 59.375C60.9766 59.375 60.9961 59.375 61.0352 59.375C61.0742 59.375 61.0937 59.375 61.1328 59.375C61.1719 59.375 61.1914 59.375 61.2305 59.375C61.2695 59.375 61.2891 59.375 61.3281 59.375C61.3672 59.375 61.3867 59.375 61.4258 59.375C61.4648 59.375 61.4844 59.375 61.5234 59.375C61.5625 59.375 61.582 59.375 61.6211 59.375C61.6602 59.375 61.6797 59.375 61.7188 59.375C61.7578 59.375 61.7773 59.375 61.8164 59.375C61.8555 59.375 61.875 59.375 61.9141 59.375C61.9531 59.375 61.9727 59.375 62.0117 59.375C62.0508 59.375 62.0703 59.375 62.1094 59.375C62.1484 59.375 62.168 59.375 62.207 59.375C62.2461 59.375 62.2656 59.375 62.3047 59.375C62.3438 59.375 62.3633 59.375 62.4023 59.375C62.4414 59.375 62.4609 59.375 62.5 59.375C62.5391 59.375 62.5586 59.375 62.5977 59.375C62.6367 59.375 62.6562 59.375 62.6953 59.375C62.7344 59.375 62.7539 59.375 62.793 59.375C62.832 59.375 62.8516 59.375 62.8906 59.375C62.9297 59.375 62.9492 59.375 62.9883 59.375C63.0273 59.375 63.0469 59.375 63.0859 59.375C63.125 59.375 63.1445 59.375 63.1836 59.375C63.2227 59.375 63.2422 59.375 63.2812 59.375C63.3203 59.375 63.3398 59.375 63.3789 59.375C63.418 59.375 63.4375 59.375 63.4766 59.375C63.5156 59.375 63.5352 59.375 63.5742 59.375C63.6133 59.375 63.6328 59.375 63.6719 59.375C63.7109 59.375 63.7305 59.375 63.7695 59.375C63.8086 59.375 63.8281 59.375 63.8672 59.375C63.9063 59.375 63.9258 59.375 63.9648 59.375C64.0039 59.375 64.0234 59.375 64.0625 59.375C64.1016 59.375 64.1211 59.375 64.1602 59.375C64.1992 59.375 64.2187 59.375 64.2578 59.375C64.2969 59.375 64.3164 59.375 64.3555 59.375C64.3945 59.375 64.4141 59.375 64.4531 59.375C64.4922 59.375 64.5117 59.375 64.5508 59.375C64.5898 59.375 64.6094 59.375 64.6484 59.375C64.6875 59.375 64.707 59.375 64.7461 59.375C64.7852 59.375 64.8047 59.375 64.8438 59.375C63.6914 62.3242 62.9297 65.4688 62.6367 68.75C62.6172 68.75 62.6172 68.75 62.5977 68.75C62.5586 68.75 62.5391 68.75 62.5 68.75C62.4609 68.75 62.4414 68.75 62.4023 68.75C62.3633 68.75 62.3438 68.75 62.3047 68.75C62.2656 68.75 62.2461 68.75 62.207 68.75C62.168 68.75 62.1484 68.75 62.1094 68.75C62.0703 68.75 62.0508 68.75 62.0117 68.75C61.9727 68.75 61.9531 68.75 61.9141 68.75C61.875 68.75 61.8555 68.75 61.8164 68.75C61.7773 68.75 61.7578 68.75 61.7188 68.75C61.6797 68.75 61.6602 68.75 61.6211 68.75C61.582 68.75 61.5625 68.75 61.5234 68.75C61.4844 68.75 61.4648 68.75 61.4258 68.75C61.3867 68.75 61.3672 68.75 61.3281 68.75C61.2891 68.75 61.2695 68.75 61.2305 68.75C61.1914 68.75 61.1719 68.75 61.1328 68.75C61.0937 68.75 61.0742 68.75 61.0352 68.75C60.9961 68.75 60.9766 68.75 60.9375 68.75C60.8984 68.75 60.8789 68.75 60.8398 68.75C60.8008 68.75 60.7813 68.75 60.7422 68.75C60.7031 68.75 60.6836 68.75 60.6445 68.75C60.6055 68.75 60.5859 68.75 60.5469 68.75C60.5078 68.75 60.4883 68.75 60.4492 68.75C60.4102 68.75 60.3906 68.75 60.3516 68.75C60.3125 68.75 60.293 68.75 60.2539 68.75C60.2148 68.75 60.1953 68.75 60.1562 68.75C60.1172 68.75 60.0977 68.75 60.0586 68.75C60.0195 68.75 60 68.75 59.9609 68.75C59.9219 68.75 59.9023 68.75 59.8633 68.75C59.8242 68.75 59.8047 68.75 59.7656 68.75C59.7266 68.75 59.707 68.75 59.668 68.75C59.6289 68.75 59.6094 68.75 59.5703 68.75C59.5312 68.75 59.5117 68.75 59.4727 68.75C59.4336 68.75 59.4141 68.75 59.375 68.75C59.3359 68.75 59.3164 68.75 59.2773 68.75C59.2383 68.75 59.2188 68.75 59.1797 68.75C59.1406 68.75 59.1211 68.75 59.082 68.75C59.043 68.75 59.0234 68.75 58.9844 68.75C58.9453 68.75 58.9258 68.75 58.8867 68.75C58.8477 68.75 58.8281 68.75 58.7891 68.75C58.75 68.75 58.7305 68.75 58.6914 68.75C58.6523 68.75 58.6328 68.75 58.5938 68.75C58.5547 68.75 58.5352 68.75 58.4961 68.75C58.457 68.75 58.4375 68.75 58.3984 68.75C58.3594 68.75 58.3398 68.75 58.3008 68.75C58.2617 68.75 58.2422 68.75 58.2031 68.75C58.1641 68.75 58.1445 68.75 58.1055 68.75C58.0664 68.75 58.0469 68.75 58.0078 68.75C57.9687 68.75 57.9492 68.75 57.9102 68.75C57.8711 68.75 57.8516 68.75 57.8125 68.75C57.7734 68.75 57.7539 68.75 57.7148 68.75C57.6758 68.75 57.6563 68.75 57.6172 68.75C57.5781 68.75 57.5586 68.75 57.5195 68.75C57.4805 68.75 57.4609 68.75 57.4219 68.75C57.3828 68.75 57.3633 68.75 57.3242 68.75C57.2852 68.75 57.2656 68.75 57.2266 68.75C57.1875 68.75 57.168 68.75 57.1289 68.75C57.0898 68.75 57.0703 68.75 57.0312 68.75C56.9922 68.75 56.9727 68.75 56.9336 68.75C56.8945 68.75 56.875 68.75 56.8359 68.75C56.7969 68.75 56.7773 68.75 56.7383 68.75C56.6992 68.75 56.6797 68.75 56.6406 68.75C56.6016 68.75 56.582 68.75 56.543 68.75C56.5039 68.75 56.4844 68.75 56.4453 68.75C56.4062 68.75 56.3867 68.75 56.3477 68.75C56.3086 68.75 56.2891 68.75 56.25 68.75C56.2109 68.75 56.1914 68.75 56.1523 68.75C56.1133 68.75 56.0938 68.75 56.0547 68.75C56.0156 68.75 55.9961 68.75 55.957 68.75C55.918 68.75 55.8984 68.75 55.8594 68.75C55.8203 68.75 55.8008 68.75 55.7617 68.75C55.7227 68.75 55.7031 68.75 55.6641 68.75C55.625 68.75 55.6055 68.75 55.5664 68.75C55.5273 68.75 55.5078 68.75 55.4688 68.75C55.4297 68.75 55.3906 68.75 55.3516 68.75C55.3125 68.75 55.2734 68.75 55.2344 68.75C55.1953 68.75 55.1563 68.75 55.1172 68.75C55.0781 68.75 55.0391 68.75 55 68.75C54.9609 68.75 54.9219 68.75 54.8828 68.75C54.8437 68.75 54.8047 68.75 54.7656 68.75C54.7266 68.75 54.6875 68.75 54.6484 68.75C54.6094 68.75 54.5703 68.75 54.5313 68.75C54.4922 68.75 54.4531 68.75 54.4141 68.75C54.375 68.75 54.3359 68.75 54.2969 68.75C54.2578 68.75 54.2187 68.75 54.1797 68.75C54.1406 68.75 54.1016 68.75 54.0625 68.75C54.0234 68.75 53.9844 68.75 53.9453 68.75C53.9063 68.75 53.8672 68.75 53.8281 68.75C53.7891 68.75 53.75 68.75 53.7109 68.75C53.6719 68.75 53.6328 68.75 53.5937 68.75C53.5547 68.75 53.5156 68.75 53.4766 68.75C53.4375 68.75 53.3984 68.75 53.3594 68.75C53.3203 68.75 53.2813 68.75 53.2422 68.75C53.2031 68.75 53.1641 68.75 53.125 68.75C53.125 71.875 53.125 75 53.125 78.125C53.125 80.3516 52.6562 82.4609 51.8164 84.375C56.1523 84.375 60.5078 84.375 64.8438 84.375C66.1914 87.793 68.0664 90.957 70.3711 93.75C59.4141 93.75 48.457 93.75 37.5 93.75C28.8672 93.75 21.875 86.7578 21.875 78.125C21.875 59.375 21.875 40.625 21.875 21.875C21.875 18.418 19.082 15.625 15.625 15.625C12.168 15.625 9.375 18.418 9.375 21.875C9.375 25 9.375 28.125 9.375 31.25C11.4648 31.25 13.5352 31.25 15.625 31.25C15.625 34.375 15.625 37.5 15.625 40.625C13.5352 40.625 11.4648 40.625 9.375 40.625C4.19922 40.625 0 36.4258 0 31.25C0 28.125 0 25 0 21.875ZM68.75 71.875C68.75 56.3477 81.3477 43.75 96.875 43.75C112.402 43.75 125 56.3477 125 71.875C125 87.4023 112.402 100 96.875 100C81.3477 100 68.75 87.4023 68.75 71.875ZM85.293 60.293C84.082 61.5039 84.082 63.4961 85.293 64.707C87.6758 67.0898 90.0781 69.4922 92.4609 71.875C90.0781 74.2578 87.6758 76.6602 85.293 79.043C84.082 80.2539 84.082 82.2461 85.293 83.457C86.5039 84.668 88.4961 84.668 89.707 83.457C92.0898 81.0742 94.4922 78.6719 96.875 76.2891C99.2578 78.6719 101.66 81.0742 104.043 83.457C105.254 84.668 107.246 84.668 108.457 83.457C109.668 82.2461 109.668 80.2539 108.457 79.043C106.074 76.6602 103.672 74.2578 101.289 71.875C103.672 69.4922 106.074 67.0898 108.457 64.707C109.668 63.4961 109.668 61.5039 108.457 60.293C107.246 59.082 105.254 59.082 104.043 60.293C101.66 62.6758 99.2578 65.0781 96.875 67.4609C94.4922 65.0781 92.0898 62.6758 89.707 60.293C88.4961 59.082 86.5039 59.082 85.293 60.293Z" fill="#E64B5F"/>
</g>
<defs>
<clipPath id="clip0_313_4">
<rect width="125" height="100" fill="white"/>
</clipPath>
</defs>
</svg>
