<svg width="132" height="150" viewBox="0 0 132 150" fill="none" xmlns="http://www.w3.org/2000/svg">
<g clip-path="url(#clip0_319_2)">
<path d="M65.625 75C75.5706 75 85.1089 71.0491 92.1415 64.0165C99.1741 56.9839 103.125 47.4456 103.125 37.5C103.125 27.5544 99.1741 18.0161 92.1415 10.9835C85.1089 3.95088 75.5706 0 65.625 0C55.6794 0 46.1411 3.95088 39.1085 10.9835C32.0759 18.0161 28.125 27.5544 28.125 37.5C28.125 47.4456 32.0759 56.9839 39.1085 64.0165C46.1411 71.0491 55.6794 75 65.625 75ZM52.2363 89.0625C23.3789 89.0625 0 112.441 0 141.299C0 146.104 3.89648 150 8.70117 150H122.549C127.354 150 131.25 146.104 131.25 141.299C131.25 112.441 107.871 89.0625 79.0137 89.0625H52.2363Z" fill="#668490"/>
</g>
<defs>
<clipPath id="clip0_319_2">
<rect width="131.25" height="150" fill="white"/>
</clipPath>
</defs>
</svg>
