<svg width="80" height="92" viewBox="0 0 80 92" fill="none" xmlns="http://www.w3.org/2000/svg">
<g clip-path="url(#clip0_310_4)">
<path d="M70.25 7.39286C72.4821 5.16071 76.1071 5.16071 78.3393 7.39286C80.5714 9.625 80.5714 13.25 78.3393 15.4821L48.0893 45.7143L78.3214 75.9643C80.5536 78.1964 80.5536 81.8214 78.3214 84.0536C76.0893 86.2857 72.4643 86.2857 70.2321 84.0536L40 53.8036L9.74999 84.0357C7.51785 86.2679 3.89285 86.2679 1.66071 84.0357C-0.571433 81.8036 -0.571433 78.1786 1.66071 75.9464L31.9107 45.7143L1.67857 15.4643C-0.553576 13.2321 -0.553576 9.625 1.67857 7.39286C3.91071 5.16071 7.53571 5.16071 9.76785 7.39286L40 37.625L70.25 7.39286Z" fill="#E64B5F"/>
</g>
<defs>
<clipPath id="clip0_310_4">
<rect width="80" height="91.4286" fill="white"/>
</clipPath>
</defs>
</svg>
